<svg width="1680" height="1200" viewBox="0 0 1680 1200" fill="none" xmlns="http://www.w3.org/2000/svg">
<g id="HOME" clip-path="url(#clip0_201_8)">
<rect width="1680" height="1200" fill="#3F4652"/>
<g id="Rectangle 109" filter="url(#filter0_n_201_8)">
<path d="M0 0H1680V1200H0V0Z" fill="#19212E"/>
</g>
<g id="Group 88" opacity="0.05">
<g id="Group 87">
<g id="Group 86">
<g id="Group 84">
<g id="Group 83">
<g id="Group 81">
<g id="Group 79">
<line id="Line 76" x1="-0.00195312" y1="39.5" x2="1680" y2="39.5" stroke="white"/>
<line id="Line 77" x1="-0.00195312" y1="79.5" x2="1680" y2="79.5" stroke="white"/>
<line id="Line 78" x1="-0.00195312" y1="119.5" x2="1680" y2="119.5" stroke="white"/>
<line id="Line 79" x1="-0.00195312" y1="159.5" x2="1680" y2="159.5" stroke="white"/>
</g>
<g id="Group 80">
<line id="Line 76_2" y1="199.5" x2="1680" y2="199.5" stroke="white"/>
<line id="Line 77_2" y1="239.5" x2="1680" y2="239.5" stroke="white"/>
<line id="Line 78_2" y1="279.5" x2="1680" y2="279.5" stroke="white"/>
<line id="Line 79_2" y1="319.5" x2="1680" y2="319.5" stroke="white"/>
</g>
</g>
<g id="Group 82">
<g id="Group 79_2">
<line id="Line 76_3" y1="359.5" x2="1680" y2="359.5" stroke="white"/>
<line id="Line 77_3" y1="399.5" x2="1680" y2="399.5" stroke="white"/>
<line id="Line 78_3" y1="439.5" x2="1680" y2="439.5" stroke="white"/>
<line id="Line 79_3" y1="479.5" x2="1680" y2="479.5" stroke="white"/>
</g>
<g id="Group 80_2">
<line id="Line 76_4" x1="0.00195312" y1="519.5" x2="1680" y2="519.5" stroke="white"/>
<line id="Line 77_4" x1="0.00195312" y1="559.5" x2="1680" y2="559.5" stroke="white"/>
<line id="Line 78_4" x1="0.00195312" y1="599.5" x2="1680" y2="599.5" stroke="white"/>
<line id="Line 79_4" x1="0.00195312" y1="639.5" x2="1680" y2="639.5" stroke="white"/>
</g>
</g>
</g>
<g id="Group 81_2">
<g id="Group 79_3">
<line id="Line 76_5" y1="679.5" x2="1680" y2="679.5" stroke="white"/>
<line id="Line 77_5" y1="719.5" x2="1680" y2="719.5" stroke="white"/>
<line id="Line 78_5" y1="759.5" x2="1680" y2="759.5" stroke="white"/>
<line id="Line 79_5" y1="799.5" x2="1680" y2="799.5" stroke="white"/>
</g>
<g id="Group 80_3">
<line id="Line 76_6" x1="0.00195312" y1="839.5" x2="1680" y2="839.5" stroke="white"/>
<line id="Line 77_6" x1="0.00195312" y1="879.5" x2="1680" y2="879.5" stroke="white"/>
<line id="Line 78_6" x1="0.00195312" y1="919.5" x2="1680" y2="919.5" stroke="white"/>
<line id="Line 79_6" x1="0.00195312" y1="959.5" x2="1680" y2="959.5" stroke="white"/>
</g>
</g>
<g id="Group 79_4">
<line id="Line 76_7" x1="0.00195312" y1="999.5" x2="1680" y2="999.5" stroke="white"/>
<line id="Line 77_7" x1="0.00195312" y1="1039.5" x2="1680" y2="1039.5" stroke="white"/>
<line id="Line 78_7" x1="0.00195312" y1="1079.5" x2="1680" y2="1079.5" stroke="white"/>
<line id="Line 79_7" x1="0.00195312" y1="1119.5" x2="1680" y2="1119.5" stroke="white"/>
</g>
<line id="Line 76_8" x1="0.00390625" y1="1159.5" x2="1680" y2="1159.5" stroke="white"/>
</g>
<g id="Group 85">
<g id="Group 83_2">
<g id="Group 81_3">
<g id="Group 79_5">
<line id="Line 76_9" x1="39.5" y1="1200" x2="39.5" y2="0.00415039" stroke="white"/>
<line id="Line 77_8" x1="79.5" y1="1200" x2="79.5" y2="0.00415039" stroke="white"/>
<line id="Line 78_8" x1="119.5" y1="1200" x2="119.5" y2="0.00415039" stroke="white"/>
<line id="Line 79_8" x1="159.5" y1="1200" x2="159.5" y2="0.00415039" stroke="white"/>
</g>
<g id="Group 80_4">
<line id="Line 76_10" x1="199.5" y1="1200" x2="199.5" y2="0.00274658" stroke="white"/>
<line id="Line 77_9" x1="239.5" y1="1200" x2="239.5" y2="0.00274658" stroke="white"/>
<line id="Line 78_9" x1="279.5" y1="1200" x2="279.5" y2="0.00274658" stroke="white"/>
<line id="Line 79_9" x1="319.5" y1="1200" x2="319.5" y2="0.00274658" stroke="white"/>
</g>
</g>
<g id="Group 82_2">
<g id="Group 79_6">
<line id="Line 76_11" x1="359.5" y1="1200" x2="359.5" y2="0.00274658" stroke="white"/>
<line id="Line 77_10" x1="399.5" y1="1200" x2="399.5" y2="0.00274658" stroke="white"/>
<line id="Line 78_10" x1="439.5" y1="1200" x2="439.5" y2="0.00274658" stroke="white"/>
<line id="Line 79_10" x1="479.5" y1="1200" x2="479.5" y2="0.00274658" stroke="white"/>
</g>
<g id="Group 80_5">
<line id="Line 76_12" x1="519.5" y1="1200" x2="519.5" y2="0.00140381" stroke="white"/>
<line id="Line 77_11" x1="559.5" y1="1200" x2="559.5" y2="0.00140381" stroke="white"/>
<line id="Line 78_11" x1="599.5" y1="1200" x2="599.5" y2="0.00140381" stroke="white"/>
<line id="Line 79_11" x1="639.5" y1="1200" x2="639.5" y2="0.00140381" stroke="white"/>
</g>
</g>
</g>
<g id="Group 81_4">
<g id="Group 79_7">
<line id="Line 76_13" x1="679.5" y1="1200" x2="679.5" y2="0.00274658" stroke="white"/>
<line id="Line 77_12" x1="719.5" y1="1200" x2="719.5" y2="0.00274658" stroke="white"/>
<line id="Line 78_12" x1="759.5" y1="1200" x2="759.5" y2="0.00274658" stroke="white"/>
<line id="Line 79_12" x1="799.5" y1="1200" x2="799.5" y2="0.00274658" stroke="white"/>
</g>
<g id="Group 80_6">
<line id="Line 76_14" x1="839.5" y1="1200" x2="839.5" y2="0.00140381" stroke="white"/>
<line id="Line 77_13" x1="879.5" y1="1200" x2="879.5" y2="0.00140381" stroke="white"/>
<line id="Line 78_13" x1="919.5" y1="1200" x2="919.5" y2="0.00140381" stroke="white"/>
<line id="Line 79_13" x1="959.5" y1="1200" x2="959.5" y2="0.00140381" stroke="white"/>
</g>
</g>
<g id="Group 79_8">
<line id="Line 76_15" x1="999.5" y1="1200" x2="999.5" y2="0.00134277" stroke="white"/>
<line id="Line 77_14" x1="1039.5" y1="1200" x2="1039.5" y2="0.00134277" stroke="white"/>
<line id="Line 78_14" x1="1079.5" y1="1200" x2="1079.5" y2="0.00134277" stroke="white"/>
<line id="Line 79_14" x1="1119.5" y1="1200" x2="1119.5" y2="0.00134277" stroke="white"/>
</g>
<line id="Line 76_16" x1="1159.5" y1="1200" x2="1159.5" y2="-6.10352e-05" stroke="white"/>
</g>
</g>
</g>
<g id="Group 87_2">
<g id="Group 86_2">
<g id="Group 81_5">
<g id="Group 79_9">
<line id="Line 76_17" x1="1199.5" y1="1200" x2="1199.5" y2="0.00415039" stroke="white"/>
<line id="Line 77_15" x1="1239.5" y1="1200" x2="1239.5" y2="0.00415039" stroke="white"/>
<line id="Line 78_15" x1="1279.5" y1="1200" x2="1279.5" y2="0.00415039" stroke="white"/>
<line id="Line 79_15" x1="1319.5" y1="1200" x2="1319.5" y2="0.00415039" stroke="white"/>
</g>
<g id="Group 80_7">
<line id="Line 76_18" x1="1359.5" y1="1200" x2="1359.5" y2="0.00274658" stroke="white"/>
<line id="Line 77_16" x1="1399.5" y1="1200" x2="1399.5" y2="0.00274658" stroke="white"/>
<line id="Line 78_16" x1="1439.5" y1="1200" x2="1439.5" y2="0.00274658" stroke="white"/>
<line id="Line 79_16" x1="1479.5" y1="1200" x2="1479.5" y2="0.00274658" stroke="white"/>
</g>
</g>
<g id="Group 79_10">
<line id="Line 76_19" x1="1519.5" y1="1200" x2="1519.5" y2="0.00268555" stroke="white"/>
<line id="Line 77_17" x1="1559.5" y1="1200" x2="1559.5" y2="0.00268555" stroke="white"/>
<line id="Line 78_17" x1="1599.5" y1="1200" x2="1599.5" y2="0.00268555" stroke="white"/>
<line id="Line 79_17" x1="1639.5" y1="1200" x2="1639.5" y2="0.00268555" stroke="white"/>
</g>
</g>
</g>
</g>
<g id="Frame 5">
<g id="Ellipse 1" filter="url(#filter1_f_201_8)">
<path d="M1106 600C1106 746.908 986.908 866 840 866C693.092 866 574 746.908 574 600C574 453.092 693.092 334 840 334C986.908 334 1106 453.092 1106 600Z" fill="#434786"/>
<path d="M840 343.673C981.566 343.673 1096.33 458.434 1096.33 600C1096.33 741.566 981.566 856.327 840 856.327C698.434 856.327 583.673 741.566 583.673 600C583.673 458.434 698.434 343.673 840 343.673Z" stroke="#9AC993" stroke-width="19.3455"/>
</g>
</g>
<g id="nd">
<rect width="421.461" height="42" transform="translate(629 611)" fill="white" fill-opacity="0.01"/>
<g id="Group 104">
<g id="nostalgia database">
<path id="nostalgia database_2" d="M719.434 621.103C721.355 621.103 722.909 621.708 724.095 622.918C725.281 624.127 725.874 625.93 725.874 628.326V639.963H721.32V629.394C721.32 627.899 720.999 626.773 720.359 626.013C719.718 625.254 718.781 624.875 717.548 624.875C716.243 624.875 715.199 625.266 714.416 626.049C713.633 626.808 713.242 627.923 713.242 629.394V639.963H708.687V621.459H713.242V625.266H713.384C713.526 624.649 713.835 624.021 714.309 623.38C714.784 622.74 715.448 622.206 716.302 621.779C717.18 621.328 718.224 621.103 719.434 621.103ZM735.512 640.319C733.875 640.319 732.356 639.975 730.957 639.287C729.581 638.575 728.466 637.507 727.612 636.084C726.758 634.637 726.331 632.846 726.331 630.711C726.331 628.576 726.758 626.796 727.612 625.373C728.466 623.926 729.581 622.858 730.957 622.17C732.356 621.459 733.875 621.103 735.512 621.103C737.125 621.103 738.631 621.459 740.031 622.17C741.431 622.858 742.558 623.926 743.412 625.373C744.266 626.796 744.693 628.576 744.693 630.711C744.693 632.846 744.266 634.637 743.412 636.084C742.558 637.507 741.431 638.575 740.031 639.287C738.631 639.975 737.125 640.319 735.512 640.319ZM735.512 636.511C736.935 636.511 738.098 636.025 738.999 635.052C739.924 634.079 740.387 632.632 740.387 630.711C740.387 628.789 739.924 627.342 738.999 626.369C738.098 625.397 736.935 624.91 735.512 624.91C734.065 624.91 732.878 625.397 731.953 626.369C731.052 627.342 730.601 628.789 730.601 630.711C730.601 632.632 731.052 634.079 731.953 635.052C732.878 636.025 734.065 636.511 735.512 636.511ZM751.925 640.319C749.482 640.319 747.56 639.797 746.16 638.753C744.784 637.709 744.084 636.167 744.061 634.127H748.117C748.355 635.977 749.648 636.902 751.996 636.902C753.016 636.902 753.823 636.713 754.416 636.333C755.033 635.954 755.341 635.384 755.341 634.625C755.341 634.079 755.163 633.664 754.807 633.38C754.475 633.071 753.93 632.822 753.17 632.632L749.754 631.885C746.314 631.102 744.594 629.335 744.594 626.583C744.594 624.851 745.259 623.511 746.587 622.562C747.916 621.589 749.707 621.103 751.961 621.103C754.309 621.103 756.112 621.636 757.37 622.704C758.627 623.772 759.279 625.29 759.327 627.259H755.555C755.341 625.432 754.191 624.519 752.103 624.519C751.13 624.519 750.359 624.697 749.79 625.053C749.221 625.408 748.936 625.895 748.936 626.512C748.936 627.034 749.126 627.472 749.505 627.828C749.909 628.16 750.478 628.398 751.213 628.54L754.736 629.323C756.397 629.702 757.69 630.295 758.615 631.102C759.564 631.885 760.038 633.024 760.038 634.518C760.038 636.464 759.267 637.923 757.725 638.895C756.207 639.844 754.274 640.319 751.925 640.319ZM770.539 636.547V640.105C769.923 640.176 769.033 640.212 767.87 640.212C766.067 640.212 764.656 639.773 763.636 638.895C762.639 638.017 762.141 636.641 762.141 634.767V624.981H759.045V621.459H762.141V616.726H766.696V621.459H770.326V624.981H766.696V634.056C766.696 634.886 766.874 635.515 767.23 635.942C767.586 636.345 768.179 636.547 769.009 636.547H770.539ZM778.701 621.103C781.382 621.103 783.327 621.601 784.537 622.597C785.747 623.57 786.352 625.1 786.352 627.188V639.963H782.01V636.689H781.832C781.737 637.116 781.453 637.614 780.978 638.184C780.504 638.753 779.816 639.251 778.914 639.678C778.013 640.105 776.933 640.319 775.676 640.319C773.992 640.319 772.58 639.903 771.441 639.073C770.303 638.219 769.733 636.938 769.733 635.23C769.733 633.522 770.303 632.288 771.441 631.529C772.58 630.77 774.122 630.26 776.068 629.999L779.697 629.501C780.528 629.406 781.085 629.24 781.37 629.003C781.654 628.742 781.797 628.338 781.797 627.793V627.401C781.797 626.31 781.512 625.551 780.943 625.124C780.397 624.697 779.59 624.483 778.523 624.483C776.245 624.483 775.107 625.361 775.107 627.117V627.33L770.801 627.401V626.69C770.801 622.965 773.434 621.103 778.701 621.103ZM781.797 631.28C781.702 631.47 781.5 631.612 781.192 631.707C780.907 631.802 780.445 631.897 779.804 631.992L777.171 632.348C776.174 632.514 775.427 632.775 774.929 633.13C774.454 633.486 774.217 633.996 774.217 634.661C774.217 635.349 774.466 635.906 774.964 636.333C775.463 636.76 776.234 636.974 777.277 636.974C778.25 636.974 779.069 636.796 779.733 636.44C780.421 636.06 780.931 635.61 781.263 635.088C781.619 634.566 781.797 634.068 781.797 633.593V631.28ZM787.697 615.053H792.252V639.963H787.697V615.053ZM810.911 621.459V639.393C810.911 642.359 809.962 644.435 808.064 645.621C806.19 646.807 804.019 647.4 801.552 647.4C799.346 647.4 797.389 646.937 795.681 646.012C793.996 645.111 793.142 643.509 793.118 641.208H797.14C797.187 642.086 797.626 642.75 798.456 643.201C799.31 643.652 800.307 643.877 801.445 643.877C802.892 643.877 804.067 643.498 804.968 642.738C805.893 642.003 806.356 640.888 806.356 639.393V636.725C805.81 637.579 805.028 638.255 804.007 638.753C803.011 639.251 801.872 639.5 800.591 639.5C799.215 639.5 797.922 639.192 796.712 638.575C795.526 637.934 794.554 636.926 793.794 635.55C793.059 634.174 792.691 632.431 792.691 630.319C792.691 628.208 793.071 626.464 793.83 625.088C794.589 623.712 795.562 622.704 796.748 622.063C797.958 621.423 799.239 621.103 800.591 621.103C801.872 621.103 803.011 621.352 804.007 621.85C805.028 622.348 805.81 623.024 806.356 623.878V621.459H810.911ZM801.766 635.728C803.118 635.728 804.245 635.266 805.146 634.34C806.071 633.391 806.534 632.051 806.534 630.319C806.534 628.564 806.071 627.223 805.146 626.298C804.245 625.373 803.118 624.91 801.766 624.91C800.413 624.91 799.275 625.373 798.349 626.298C797.424 627.223 796.962 628.564 796.962 630.319C796.962 632.051 797.424 633.391 798.349 634.34C799.275 635.266 800.413 635.728 801.766 635.728ZM814.496 618.861C813.784 618.861 813.168 618.624 812.646 618.149C812.148 617.651 811.898 617.058 811.898 616.37C811.898 615.658 812.148 615.065 812.646 614.591C813.168 614.092 813.784 613.843 814.496 613.843C815.184 613.843 815.777 614.092 816.275 614.591C816.797 615.065 817.058 615.658 817.058 616.37C817.058 617.058 816.797 617.651 816.275 618.149C815.777 618.624 815.184 618.861 814.496 618.861ZM812.219 621.459H816.774V639.963H812.219V621.459ZM826.181 621.103C828.861 621.103 830.807 621.601 832.017 622.597C833.226 623.57 833.831 625.1 833.831 627.188V639.963H829.49V636.689H829.312C829.217 637.116 828.932 637.614 828.458 638.184C827.984 638.753 827.296 639.251 826.394 639.678C825.493 640.105 824.413 640.319 823.156 640.319C821.471 640.319 820.06 639.903 818.921 639.073C817.782 638.219 817.213 636.938 817.213 635.23C817.213 633.522 817.782 632.288 818.921 631.529C820.06 630.77 821.602 630.26 823.547 629.999L827.177 629.501C828.007 629.406 828.565 629.24 828.849 629.003C829.134 628.742 829.276 628.338 829.276 627.793V627.401C829.276 626.31 828.992 625.551 828.422 625.124C827.877 624.697 827.07 624.483 826.003 624.483C823.725 624.483 822.586 625.361 822.586 627.117V627.33L818.281 627.401V626.69C818.281 622.965 820.914 621.103 826.181 621.103ZM829.276 631.28C829.182 631.47 828.98 631.612 828.672 631.707C828.387 631.802 827.924 631.897 827.284 631.992L824.65 632.348C823.654 632.514 822.907 632.775 822.409 633.13C821.934 633.486 821.697 633.996 821.697 634.661C821.697 635.349 821.946 635.906 822.444 636.333C822.942 636.76 823.713 636.974 824.757 636.974C825.73 636.974 826.548 636.796 827.213 636.44C827.901 636.06 828.411 635.61 828.743 635.088C829.099 634.566 829.276 634.068 829.276 633.593V631.28ZM858.43 615.053V639.963H853.876V637.258C853.401 638.184 852.654 638.931 851.634 639.5C850.637 640.046 849.475 640.319 848.146 640.319C846.747 640.319 845.418 639.975 844.161 639.287C842.927 638.599 841.919 637.531 841.136 636.084C840.377 634.637 839.997 632.846 839.997 630.711C839.997 628.576 840.377 626.784 841.136 625.337C841.919 623.89 842.927 622.823 844.161 622.135C845.418 621.447 846.747 621.103 848.146 621.103C849.475 621.103 850.637 621.387 851.634 621.957C852.654 622.502 853.401 623.238 853.876 624.163V615.053H858.43ZM849.178 636.511C850.554 636.511 851.717 636.013 852.666 635.016C853.615 634.02 854.089 632.585 854.089 630.711C854.089 628.836 853.615 627.401 852.666 626.405C851.717 625.408 850.554 624.91 849.178 624.91C847.802 624.91 846.64 625.408 845.691 626.405C844.742 627.401 844.268 628.836 844.268 630.711C844.268 632.585 844.742 634.02 845.691 635.016C846.64 636.013 847.802 636.511 849.178 636.511ZM867.846 621.103C870.526 621.103 872.472 621.601 873.682 622.597C874.892 623.57 875.497 625.1 875.497 627.188V639.963H871.155V636.689H870.977C870.882 637.116 870.598 637.614 870.123 638.184C869.649 638.753 868.961 639.251 868.059 639.678C867.158 640.105 866.078 640.319 864.821 640.319C863.137 640.319 861.725 639.903 860.586 639.073C859.448 638.219 858.878 636.938 858.878 635.23C858.878 633.522 859.448 632.288 860.586 631.529C861.725 630.77 863.267 630.26 865.212 629.999L868.842 629.501C869.672 629.406 870.23 629.24 870.515 629.003C870.799 628.742 870.942 628.338 870.942 627.793V627.401C870.942 626.31 870.657 625.551 870.088 625.124C869.542 624.697 868.735 624.483 867.668 624.483C865.39 624.483 864.252 625.361 864.252 627.117V627.33L859.946 627.401V626.69C859.946 622.965 862.579 621.103 867.846 621.103ZM870.942 631.28C870.847 631.47 870.645 631.612 870.337 631.707C870.052 631.802 869.589 631.897 868.949 631.992L866.316 632.348C865.319 632.514 864.572 632.775 864.074 633.13C863.599 633.486 863.362 633.996 863.362 634.661C863.362 635.349 863.611 635.906 864.109 636.333C864.607 636.76 865.378 636.974 866.422 636.974C867.395 636.974 868.213 636.796 868.878 636.44C869.566 636.06 870.076 635.61 870.408 635.088C870.764 634.566 870.942 634.068 870.942 633.593V631.28ZM886.569 636.547V640.105C885.952 640.176 885.063 640.212 883.9 640.212C882.097 640.212 880.686 639.773 879.666 638.895C878.669 638.017 878.171 636.641 878.171 634.767V624.981H875.075V621.459H878.171V616.726H882.726V621.459H886.356V624.981H882.726V634.056C882.726 634.886 882.904 635.515 883.26 635.942C883.615 636.345 884.209 636.547 885.039 636.547H886.569ZM894.731 621.103C897.411 621.103 899.357 621.601 900.566 622.597C901.776 623.57 902.381 625.1 902.381 627.188V639.963H898.04V636.689H897.862C897.767 637.116 897.482 637.614 897.008 638.184C896.534 638.753 895.846 639.251 894.944 639.678C894.043 640.105 892.963 640.319 891.706 640.319C890.021 640.319 888.61 639.903 887.471 639.073C886.332 638.219 885.763 636.938 885.763 635.23C885.763 633.522 886.332 632.288 887.471 631.529C888.61 630.77 890.152 630.26 892.097 629.999L895.727 629.501C896.557 629.406 897.115 629.24 897.399 629.003C897.684 628.742 897.826 628.338 897.826 627.793V627.401C897.826 626.31 897.542 625.551 896.972 625.124C896.427 624.697 895.62 624.483 894.553 624.483C892.275 624.483 891.136 625.361 891.136 627.117V627.33L886.831 627.401V626.69C886.831 622.965 889.464 621.103 894.731 621.103ZM897.826 631.28C897.732 631.47 897.53 631.612 897.221 631.707C896.937 631.802 896.474 631.897 895.834 631.992L893.2 632.348C892.204 632.514 891.457 632.775 890.959 633.13C890.484 633.486 890.247 633.996 890.247 634.661C890.247 635.349 890.496 635.906 890.994 636.333C891.492 636.76 892.263 636.974 893.307 636.974C894.28 636.974 895.098 636.796 895.763 636.44C896.45 636.06 896.961 635.61 897.293 635.088C897.649 634.566 897.826 634.068 897.826 633.593V631.28ZM914.011 621.103C915.41 621.103 916.727 621.447 917.961 622.135C919.218 622.823 920.226 623.89 920.985 625.337C921.768 626.784 922.16 628.576 922.16 630.711C922.16 632.846 921.768 634.637 920.985 636.084C920.226 637.531 919.218 638.599 917.961 639.287C916.727 639.975 915.41 640.319 914.011 640.319C912.682 640.319 911.508 640.046 910.488 639.5C909.468 638.931 908.732 638.195 908.282 637.294V639.963H903.727V615.053H908.282V624.127C908.732 623.226 909.468 622.502 910.488 621.957C911.508 621.387 912.682 621.103 914.011 621.103ZM912.943 636.511C914.319 636.511 915.482 636.013 916.431 635.016C917.403 634.02 917.889 632.585 917.889 630.711C917.889 628.836 917.403 627.401 916.431 626.405C915.482 625.408 914.319 624.91 912.943 624.91C911.591 624.91 910.44 625.408 909.491 626.405C908.542 627.401 908.068 628.836 908.068 630.711C908.068 632.585 908.542 634.02 909.491 635.016C910.44 636.013 911.591 636.511 912.943 636.511ZM930.685 621.103C933.366 621.103 935.311 621.601 936.521 622.597C937.731 623.57 938.336 625.1 938.336 627.188V639.963H933.995V636.689H933.817C933.722 637.116 933.437 637.614 932.963 638.184C932.488 638.753 931.8 639.251 930.899 639.678C929.997 640.105 928.918 640.319 927.661 640.319C925.976 640.319 924.565 639.903 923.426 639.073C922.287 638.219 921.718 636.938 921.718 635.23C921.718 633.522 922.287 632.288 923.426 631.529C924.565 630.77 926.107 630.26 928.052 629.999L931.682 629.501C932.512 629.406 933.07 629.24 933.354 629.003C933.639 628.742 933.781 628.338 933.781 627.793V627.401C933.781 626.31 933.497 625.551 932.927 625.124C932.382 624.697 931.575 624.483 930.507 624.483C928.23 624.483 927.091 625.361 927.091 627.117V627.33L922.785 627.401V626.69C922.785 622.965 925.419 621.103 930.685 621.103ZM933.781 631.28C933.686 631.47 933.485 631.612 933.176 631.707C932.892 631.802 932.429 631.897 931.789 631.992L929.155 632.348C928.159 632.514 927.412 632.775 926.913 633.13C926.439 633.486 926.202 633.996 926.202 634.661C926.202 635.349 926.451 635.906 926.949 636.333C927.447 636.76 928.218 636.974 929.262 636.974C930.235 636.974 931.053 636.796 931.717 636.44C932.405 636.06 932.915 635.61 933.248 635.088C933.603 634.566 933.781 634.068 933.781 633.593V631.28ZM946.478 640.319C944.035 640.319 942.113 639.797 940.713 638.753C939.337 637.709 938.638 636.167 938.614 634.127H942.671C942.908 635.977 944.201 636.902 946.549 636.902C947.57 636.902 948.376 636.713 948.969 636.333C949.586 635.954 949.894 635.384 949.894 634.625C949.894 634.079 949.716 633.664 949.361 633.38C949.029 633.071 948.483 632.822 947.724 632.632L944.308 631.885C940.868 631.102 939.148 629.335 939.148 626.583C939.148 624.851 939.812 623.511 941.14 622.562C942.469 621.589 944.26 621.103 946.514 621.103C948.862 621.103 950.665 621.636 951.923 622.704C953.18 623.772 953.832 625.29 953.88 627.259H950.108C949.894 625.432 948.744 624.519 946.656 624.519C945.684 624.519 944.912 624.697 944.343 625.053C943.774 625.408 943.489 625.895 943.489 626.512C943.489 627.034 943.679 627.472 944.058 627.828C944.462 628.16 945.031 628.398 945.767 628.54L949.289 629.323C950.95 629.702 952.243 630.295 953.168 631.102C954.117 631.885 954.592 633.024 954.592 634.518C954.592 636.464 953.821 637.923 952.279 638.895C950.76 639.844 948.827 640.319 946.478 640.319ZM971.711 630.675C971.711 631.126 971.676 631.529 971.605 631.885H958.26C958.403 633.64 958.901 634.933 959.755 635.764C960.633 636.57 961.842 636.974 963.385 636.974C964.476 636.974 965.342 636.748 965.982 636.298C966.623 635.847 967.097 635.159 967.406 634.234H971.462C970.988 636.274 970.003 637.816 968.509 638.86C967.038 639.903 965.235 640.425 963.1 640.425C961.415 640.425 959.885 640.093 958.509 639.429C957.133 638.741 956.03 637.685 955.2 636.262C954.37 634.815 953.954 632.988 953.954 630.782C953.954 628.576 954.358 626.749 955.164 625.302C955.995 623.855 957.086 622.799 958.438 622.135C959.814 621.447 961.344 621.103 963.029 621.103C965.615 621.103 967.702 621.886 969.292 623.451C970.905 625.017 971.711 627.425 971.711 630.675ZM967.406 629.358C967.358 627.888 966.967 626.725 966.231 625.871C965.496 625.017 964.405 624.59 962.957 624.59C961.582 624.59 960.49 624.993 959.684 625.8C958.877 626.606 958.403 627.793 958.26 629.358H967.406Z" fill="white"/>
</g>
</g>
</g>
<g id="mb">
<rect width="421.461" height="42" transform="translate(629 569)" fill="white" fill-opacity="0.01"/>
<g id="Group 105">
<g id="memory builder">
<path id="memory builder_2" d="M749.22 580.621C751.094 580.621 752.6 581.226 753.739 582.436C754.878 583.646 755.447 585.449 755.447 587.845V599.481H750.892V588.913C750.892 587.418 750.596 586.291 750.003 585.532C749.409 584.773 748.555 584.393 747.44 584.393C746.302 584.393 745.388 584.785 744.7 585.568C744.012 586.327 743.668 587.442 743.668 588.913V599.481H739.114V588.913C739.114 587.418 738.817 586.291 738.224 585.532C737.655 584.773 736.812 584.393 735.697 584.393C734.559 584.393 733.645 584.785 732.957 585.568C732.269 586.327 731.925 587.442 731.925 588.913V599.481H727.37V580.977H731.925V584.785H732.068C732.163 584.192 732.447 583.575 732.922 582.934C733.396 582.294 734.025 581.748 734.808 581.297C735.614 580.847 736.551 580.621 737.619 580.621C738.971 580.621 740.146 580.977 741.142 581.689C742.162 582.4 742.874 583.468 743.277 584.891C743.419 584.275 743.728 583.646 744.202 583.005C744.7 582.341 745.377 581.784 746.231 581.333C747.085 580.858 748.081 580.621 749.22 580.621ZM773.648 590.194C773.648 590.644 773.613 591.048 773.542 591.404H760.197C760.339 593.159 760.838 594.452 761.692 595.282C762.569 596.089 763.779 596.492 765.321 596.492C766.413 596.492 767.279 596.267 767.919 595.816C768.56 595.365 769.034 594.677 769.343 593.752H773.399C772.925 595.792 771.94 597.334 770.446 598.378C768.975 599.422 767.172 599.944 765.037 599.944C763.352 599.944 761.822 599.612 760.446 598.948C759.07 598.26 757.967 597.204 757.137 595.78C756.307 594.333 755.891 592.507 755.891 590.3C755.891 588.094 756.295 586.267 757.101 584.82C757.932 583.373 759.023 582.317 760.375 581.653C761.751 580.965 763.281 580.621 764.966 580.621C767.551 580.621 769.639 581.404 771.229 582.97C772.842 584.536 773.648 586.944 773.648 590.194ZM769.343 588.877C769.295 587.406 768.904 586.244 768.168 585.39C767.433 584.536 766.342 584.109 764.894 584.109C763.518 584.109 762.427 584.512 761.621 585.318C760.814 586.125 760.339 587.311 760.197 588.877H769.343ZM795.913 580.621C797.787 580.621 799.293 581.226 800.432 582.436C801.571 583.646 802.14 585.449 802.14 587.845V599.481H797.585V588.913C797.585 587.418 797.289 586.291 796.696 585.532C796.102 584.773 795.248 584.393 794.133 584.393C792.995 584.393 792.081 584.785 791.393 585.568C790.705 586.327 790.361 587.442 790.361 588.913V599.481H785.806V588.913C785.806 587.418 785.51 586.291 784.917 585.532C784.347 584.773 783.505 584.393 782.39 584.393C781.252 584.393 780.338 584.785 779.65 585.568C778.962 586.327 778.618 587.442 778.618 588.913V599.481H774.063V580.977H778.618V584.785H778.761C778.856 584.192 779.14 583.575 779.615 582.934C780.089 582.294 780.718 581.748 781.501 581.297C782.307 580.847 783.244 580.621 784.312 580.621C785.664 580.621 786.838 580.977 787.835 581.689C788.855 582.4 789.567 583.468 789.97 584.891C790.112 584.275 790.421 583.646 790.895 583.005C791.393 582.341 792.069 581.784 792.923 581.333C793.778 580.858 794.774 580.621 795.913 580.621ZM811.765 599.837C810.128 599.837 808.61 599.493 807.21 598.805C805.834 598.094 804.719 597.026 803.865 595.603C803.011 594.155 802.584 592.364 802.584 590.229C802.584 588.094 803.011 586.315 803.865 584.891C804.719 583.444 805.834 582.377 807.21 581.689C808.61 580.977 810.128 580.621 811.765 580.621C813.378 580.621 814.885 580.977 816.285 581.689C817.684 582.377 818.811 583.444 819.665 584.891C820.519 586.315 820.946 588.094 820.946 590.229C820.946 592.364 820.519 594.155 819.665 595.603C818.811 597.026 817.684 598.094 816.285 598.805C814.885 599.493 813.378 599.837 811.765 599.837ZM811.765 596.03C813.189 596.03 814.351 595.543 815.253 594.571C816.178 593.598 816.64 592.151 816.64 590.229C816.64 588.308 816.178 586.86 815.253 585.888C814.351 584.915 813.189 584.429 811.765 584.429C810.318 584.429 809.132 584.915 808.207 585.888C807.305 586.86 806.855 588.308 806.855 590.229C806.855 592.151 807.305 593.598 808.207 594.571C809.132 595.543 810.318 596.03 811.765 596.03ZM831.524 580.835C832.046 580.835 832.52 580.894 832.947 581.013V584.856C832.401 584.785 831.927 584.749 831.524 584.749C829.887 584.749 828.546 585.259 827.502 586.279C826.459 587.276 825.937 588.806 825.937 590.87V599.481H821.382V580.977H825.937V585.39H826.043C826.376 584.037 827.004 582.946 827.93 582.116C828.855 581.262 830.053 580.835 831.524 580.835ZM833.64 602.648C834.138 602.72 834.577 602.755 834.956 602.755C836.047 602.755 836.854 602.554 837.376 602.15C837.922 601.747 838.337 601.201 838.621 600.513C838.811 600.11 838.906 599.695 838.906 599.268C838.906 598.841 838.811 598.426 838.621 598.022L831.789 580.977H836.451L841.184 593.788L845.952 580.977H850.649L842.963 599.98C841.99 602.376 840.923 604.084 839.76 605.104C838.598 606.124 837.079 606.634 835.205 606.634C834.707 606.634 834.185 606.598 833.64 606.527V602.648ZM866.728 580.621C868.128 580.621 869.445 580.965 870.678 581.653C871.936 582.341 872.944 583.409 873.703 584.856C874.486 586.303 874.877 588.094 874.877 590.229C874.877 592.364 874.486 594.155 873.703 595.603C872.944 597.05 871.936 598.117 870.678 598.805C869.445 599.493 868.128 599.837 866.728 599.837C865.4 599.837 864.226 599.564 863.205 599.019C862.185 598.449 861.45 597.714 860.999 596.812V599.481H856.444V574.572H860.999V583.646C861.45 582.744 862.185 582.021 863.205 581.475C864.226 580.906 865.4 580.621 866.728 580.621ZM865.661 596.03C867.037 596.03 868.199 595.531 869.148 594.535C870.121 593.539 870.607 592.103 870.607 590.229C870.607 588.355 870.121 586.92 869.148 585.923C868.199 584.927 867.037 584.429 865.661 584.429C864.309 584.429 863.158 584.927 862.209 585.923C861.26 586.92 860.786 588.355 860.786 590.229C860.786 592.103 861.26 593.539 862.209 594.535C863.158 595.531 864.309 596.03 865.661 596.03ZM892.548 580.977V599.481H887.994V595.674H887.816C887.673 596.291 887.365 596.919 886.89 597.56C886.416 598.2 885.74 598.746 884.862 599.197C884.008 599.624 882.976 599.837 881.766 599.837C879.868 599.837 878.314 599.232 877.105 598.022C875.918 596.812 875.325 595.009 875.325 592.613V580.977H879.88V591.546C879.88 594.559 881.149 596.065 883.688 596.065C884.969 596.065 886.001 595.686 886.784 594.926C887.59 594.144 887.994 593.017 887.994 591.546V580.977H892.548ZM896.136 578.379C895.424 578.379 894.808 578.142 894.286 577.668C893.788 577.169 893.538 576.576 893.538 575.888C893.538 575.177 893.788 574.584 894.286 574.109C894.808 573.611 895.424 573.362 896.136 573.362C896.824 573.362 897.417 573.611 897.915 574.109C898.437 574.584 898.698 575.177 898.698 575.888C898.698 576.576 898.437 577.169 897.915 577.668C897.417 578.142 896.824 578.379 896.136 578.379ZM893.859 580.977H898.414V599.481H893.859V580.977ZM899.743 574.572H904.298V599.481H899.743V574.572ZM923.17 574.572V599.481H918.615V596.777C918.141 597.702 917.394 598.449 916.373 599.019C915.377 599.564 914.215 599.837 912.886 599.837C911.486 599.837 910.158 599.493 908.901 598.805C907.667 598.117 906.659 597.05 905.876 595.603C905.117 594.155 904.737 592.364 904.737 590.229C904.737 588.094 905.117 586.303 905.876 584.856C906.659 583.409 907.667 582.341 908.901 581.653C910.158 580.965 911.486 580.621 912.886 580.621C914.215 580.621 915.377 580.906 916.373 581.475C917.394 582.021 918.141 582.756 918.615 583.682V574.572H923.17ZM913.918 596.03C915.294 596.03 916.457 595.531 917.405 594.535C918.354 593.539 918.829 592.103 918.829 590.229C918.829 588.355 918.354 586.92 917.405 585.923C916.457 584.927 915.294 584.429 913.918 584.429C912.542 584.429 911.38 584.927 910.431 585.923C909.482 586.92 909.007 588.355 909.007 590.229C909.007 592.103 909.482 593.539 910.431 594.535C911.38 595.531 912.542 596.03 913.918 596.03ZM941.375 590.194C941.375 590.644 941.34 591.048 941.268 591.404H927.924C928.066 593.159 928.564 594.452 929.419 595.282C930.296 596.089 931.506 596.492 933.048 596.492C934.139 596.492 935.005 596.267 935.646 595.816C936.286 595.365 936.761 594.677 937.069 593.752H941.126C940.652 595.792 939.667 597.334 938.172 598.378C936.702 599.422 934.899 599.944 932.764 599.944C931.079 599.944 929.549 599.612 928.173 598.948C926.797 598.26 925.694 597.204 924.864 595.78C924.033 594.333 923.618 592.507 923.618 590.3C923.618 588.094 924.021 586.267 924.828 584.82C925.658 583.373 926.75 582.317 928.102 581.653C929.478 580.965 931.008 580.621 932.692 580.621C935.278 580.621 937.366 581.404 938.955 582.97C940.569 584.536 941.375 586.944 941.375 590.194ZM937.069 588.877C937.022 587.406 936.63 586.244 935.895 585.39C935.16 584.536 934.068 584.109 932.621 584.109C931.245 584.109 930.154 584.512 929.347 585.318C928.541 586.125 928.066 587.311 927.924 588.877H937.069ZM951.932 580.835C952.454 580.835 952.928 580.894 953.355 581.013V584.856C952.81 584.785 952.335 584.749 951.932 584.749C950.295 584.749 948.955 585.259 947.911 586.279C946.867 587.276 946.345 588.806 946.345 590.87V599.481H941.79V580.977H946.345V585.39H946.452C946.784 584.037 947.413 582.946 948.338 582.116C949.263 581.262 950.461 580.835 951.932 580.835Z" fill="white"/>
</g>
</g>
</g>
<g id="pnw">
<rect width="444.814" height="47" transform="translate(618 523)" fill="white" fill-opacity="0.01"/>
<g id="Group 106">
<g id="pacific northwest maps">
<path id="pacific northwest maps_2" d="M686.716 541.14C688.116 541.14 689.432 541.484 690.666 542.172C691.923 542.86 692.931 543.927 693.691 545.375C694.473 546.822 694.865 548.613 694.865 550.748C694.865 552.883 694.473 554.674 693.691 556.121C692.931 557.568 691.923 558.636 690.666 559.324C689.432 560.012 688.116 560.356 686.716 560.356C685.387 560.356 684.213 560.083 683.193 559.537C682.173 558.968 681.437 558.233 680.987 557.331V566.761H676.432V541.496H680.987V544.165C681.437 543.263 682.173 542.54 683.193 541.994C684.213 541.425 685.387 541.14 686.716 541.14ZM685.648 556.548C687.024 556.548 688.187 556.05 689.136 555.054C690.108 554.057 690.595 552.622 690.595 550.748C690.595 548.874 690.108 547.438 689.136 546.442C688.187 545.446 687.024 544.947 685.648 544.947C684.296 544.947 683.145 545.446 682.197 546.442C681.248 547.438 680.773 548.874 680.773 550.748C680.773 552.622 681.248 554.057 682.197 555.054C683.145 556.05 684.296 556.548 685.648 556.548ZM703.391 541.14C706.071 541.14 708.017 541.638 709.226 542.634C710.436 543.607 711.041 545.137 711.041 547.225V560H706.7V556.726H706.522C706.427 557.153 706.142 557.651 705.668 558.221C705.193 558.79 704.506 559.288 703.604 559.715C702.703 560.142 701.623 560.356 700.366 560.356C698.681 560.356 697.27 559.941 696.131 559.11C694.992 558.256 694.423 556.975 694.423 555.267C694.423 553.559 694.992 552.325 696.131 551.566C697.27 550.807 698.812 550.297 700.757 550.036L704.387 549.538C705.217 549.443 705.775 549.277 706.059 549.04C706.344 548.779 706.486 548.376 706.486 547.83V547.438C706.486 546.347 706.202 545.588 705.632 545.161C705.087 544.734 704.28 544.52 703.213 544.52C700.935 544.52 699.796 545.398 699.796 547.154V547.367L695.491 547.438V546.727C695.491 543.002 698.124 541.14 703.391 541.14ZM706.486 551.317C706.392 551.507 706.19 551.649 705.881 551.744C705.597 551.839 705.134 551.934 704.494 552.029L701.86 552.385C700.864 552.551 700.117 552.812 699.618 553.168C699.144 553.524 698.907 554.034 698.907 554.698C698.907 555.386 699.156 555.943 699.654 556.37C700.152 556.797 700.923 557.011 701.967 557.011C702.94 557.011 703.758 556.833 704.422 556.477C705.11 556.097 705.621 555.647 705.953 555.125C706.308 554.603 706.486 554.105 706.486 553.63V551.317ZM720.504 560.356C718.891 560.356 717.385 560.024 715.985 559.359C714.585 558.671 713.458 557.616 712.604 556.192C711.75 554.745 711.323 552.942 711.323 550.783C711.323 548.601 711.75 546.786 712.604 545.339C713.458 543.892 714.585 542.836 715.985 542.172C717.385 541.484 718.891 541.14 720.504 541.14C722.544 541.14 724.359 541.686 725.949 542.777C727.562 543.868 728.523 545.754 728.831 548.435H724.774C724.561 547.249 724.075 546.371 723.315 545.802C722.556 545.232 721.607 544.947 720.469 544.947C718.927 544.947 717.729 545.469 716.874 546.513C716.02 547.557 715.593 548.98 715.593 550.783C715.593 552.563 716.02 553.974 716.874 555.018C717.729 556.038 718.927 556.548 720.469 556.548C721.607 556.548 722.556 556.264 723.315 555.694C724.075 555.101 724.561 554.211 724.774 553.025H728.831C728.57 555.706 727.633 557.604 726.02 558.719C724.407 559.81 722.568 560.356 720.504 560.356ZM731.599 538.898C730.887 538.898 730.27 538.661 729.749 538.186C729.25 537.688 729.001 537.095 729.001 536.407C729.001 535.695 729.25 535.102 729.749 534.628C730.27 534.13 730.887 533.881 731.599 533.881C732.287 533.881 732.88 534.13 733.378 534.628C733.9 535.102 734.161 535.695 734.161 536.407C734.161 537.095 733.9 537.688 733.378 538.186C732.88 538.661 732.287 538.898 731.599 538.898ZM729.321 541.496H733.876V560H729.321V541.496ZM743.147 538.008C742.34 538.008 741.759 538.21 741.403 538.613C741.047 539.017 740.869 539.633 740.869 540.464V541.496H744.499V545.019H740.869V560H736.315V545.019H733.717V541.496H736.315V539.93C736.315 538.056 736.813 536.692 737.809 535.838C738.829 534.96 740.241 534.521 742.044 534.521H744.606V538.008H743.147ZM746.842 538.898C746.13 538.898 745.514 538.661 744.992 538.186C744.494 537.688 744.244 537.095 744.244 536.407C744.244 535.695 744.494 535.102 744.992 534.628C745.514 534.13 746.13 533.881 746.842 533.881C747.53 533.881 748.123 534.13 748.621 534.628C749.143 535.102 749.404 535.695 749.404 536.407C749.404 537.095 749.143 537.688 748.621 538.186C748.123 538.661 747.53 538.898 746.842 538.898ZM744.565 541.496H749.12V560H744.565V541.496ZM758.74 560.356C757.127 560.356 755.62 560.024 754.221 559.359C752.821 558.671 751.694 557.616 750.84 556.192C749.986 554.745 749.559 552.942 749.559 550.783C749.559 548.601 749.986 546.786 750.84 545.339C751.694 543.892 752.821 542.836 754.221 542.172C755.62 541.484 757.127 541.14 758.74 541.14C760.78 541.14 762.595 541.686 764.185 542.777C765.798 543.868 766.759 545.754 767.067 548.435H763.01C762.797 547.249 762.31 546.371 761.551 545.802C760.792 545.232 759.843 544.947 758.705 544.947C757.162 544.947 755.964 545.469 755.11 546.513C754.256 547.557 753.829 548.98 753.829 550.783C753.829 552.563 754.256 553.974 755.11 555.018C755.964 556.038 757.162 556.548 758.705 556.548C759.843 556.548 760.792 556.264 761.551 555.694C762.31 555.101 762.797 554.211 763.01 553.025H767.067C766.806 555.706 765.869 557.604 764.256 558.719C762.643 559.81 760.804 560.356 758.74 560.356ZM784.014 541.14C785.936 541.14 787.49 541.745 788.676 542.955C789.862 544.165 790.455 545.968 790.455 548.364V560H785.9V549.431C785.9 547.937 785.58 546.81 784.94 546.051C784.299 545.291 783.362 544.912 782.128 544.912C780.824 544.912 779.78 545.303 778.997 546.086C778.214 546.845 777.823 547.96 777.823 549.431V560H773.268V541.496H777.823V545.303H777.965C778.107 544.687 778.416 544.058 778.89 543.417C779.365 542.777 780.029 542.243 780.883 541.816C781.761 541.365 782.805 541.14 784.014 541.14ZM800.092 560.356C798.456 560.356 796.937 560.012 795.538 559.324C794.162 558.612 793.047 557.545 792.193 556.121C791.339 554.674 790.912 552.883 790.912 550.748C790.912 548.613 791.339 546.834 792.193 545.41C793.047 543.963 794.162 542.895 795.538 542.207C796.937 541.496 798.456 541.14 800.092 541.14C801.706 541.14 803.212 541.496 804.612 542.207C806.011 542.895 807.138 543.963 807.992 545.41C808.846 546.834 809.273 548.613 809.273 550.748C809.273 552.883 808.846 554.674 807.992 556.121C807.138 557.545 806.011 558.612 804.612 559.324C803.212 560.012 801.706 560.356 800.092 560.356ZM800.092 556.548C801.516 556.548 802.678 556.062 803.58 555.089C804.505 554.117 804.968 552.669 804.968 550.748C804.968 548.826 804.505 547.379 803.58 546.406C802.678 545.434 801.516 544.947 800.092 544.947C798.645 544.947 797.459 545.434 796.534 546.406C795.632 547.379 795.182 548.826 795.182 550.748C795.182 552.669 795.632 554.117 796.534 555.089C797.459 556.062 798.645 556.548 800.092 556.548ZM819.851 541.353C820.373 541.353 820.847 541.413 821.274 541.531V545.375C820.729 545.303 820.254 545.268 819.851 545.268C818.214 545.268 816.874 545.778 815.83 546.798C814.786 547.794 814.264 549.324 814.264 551.388V560H809.709V541.496H814.264V545.908H814.371C814.703 544.556 815.332 543.465 816.257 542.634C817.182 541.78 818.38 541.353 819.851 541.353ZM832.132 556.584V560.142C831.515 560.214 830.625 560.249 829.463 560.249C827.66 560.249 826.248 559.81 825.228 558.932C824.232 558.055 823.733 556.679 823.733 554.805V545.019H820.638V541.496H823.733V536.763H828.288V541.496H831.918V545.019H828.288V554.093C828.288 554.923 828.466 555.552 828.822 555.979C829.178 556.382 829.771 556.584 830.601 556.584H832.132ZM843.136 541.14C845.057 541.14 846.611 541.745 847.797 542.955C848.984 544.165 849.577 545.968 849.577 548.364V560H845.022V549.431C845.022 547.937 844.701 546.81 844.061 546.051C843.42 545.291 842.483 544.912 841.25 544.912C839.945 544.912 838.901 545.303 838.118 546.086C837.335 546.845 836.944 547.96 836.944 549.431V560H832.389V535.09H836.944V545.303H837.086C837.229 544.687 837.537 544.058 838.011 543.417C838.486 542.777 839.15 542.243 840.004 541.816C840.882 541.365 841.926 541.14 843.136 541.14ZM849.156 541.496H853.462L856.913 555.552H857.056L861.077 541.496H865.027L869.048 555.552H869.19L872.642 541.496H876.983L871.93 560H866.806L863.069 547.545L859.297 560H854.173L849.156 541.496ZM893.239 550.712C893.239 551.163 893.203 551.566 893.132 551.922H879.788C879.93 553.678 880.428 554.971 881.282 555.801C882.16 556.608 883.37 557.011 884.912 557.011C886.003 557.011 886.869 556.785 887.51 556.335C888.15 555.884 888.625 555.196 888.933 554.271H892.99C892.515 556.311 891.531 557.853 890.036 558.897C888.565 559.941 886.762 560.463 884.627 560.463C882.943 560.463 881.413 560.13 880.037 559.466C878.661 558.778 877.558 557.723 876.727 556.299C875.897 554.852 875.482 553.025 875.482 550.819C875.482 548.613 875.885 546.786 876.692 545.339C877.522 543.892 878.613 542.836 879.965 542.172C881.341 541.484 882.872 541.14 884.556 541.14C887.142 541.14 889.229 541.923 890.819 543.489C892.432 545.054 893.239 547.462 893.239 550.712ZM888.933 549.396C888.885 547.925 888.494 546.762 887.759 545.908C887.023 545.054 885.932 544.627 884.485 544.627C883.109 544.627 882.018 545.031 881.211 545.837C880.404 546.644 879.93 547.83 879.788 549.396H888.933ZM900.451 560.356C898.007 560.356 896.085 559.834 894.686 558.79C893.31 557.746 892.61 556.204 892.586 554.164H896.643C896.88 556.014 898.173 556.94 900.522 556.94C901.542 556.94 902.348 556.75 902.941 556.37C903.558 555.991 903.867 555.421 903.867 554.662C903.867 554.117 903.689 553.701 903.333 553.417C903.001 553.108 902.455 552.859 901.696 552.669L898.28 551.922C894.84 551.139 893.12 549.372 893.12 546.62C893.12 544.888 893.784 543.548 895.113 542.599C896.441 541.626 898.232 541.14 900.486 541.14C902.835 541.14 904.638 541.674 905.895 542.741C907.152 543.809 907.805 545.327 907.852 547.296H904.08C903.867 545.469 902.716 544.556 900.628 544.556C899.656 544.556 898.885 544.734 898.315 545.09C897.746 545.446 897.461 545.932 897.461 546.549C897.461 547.071 897.651 547.51 898.031 547.865C898.434 548.198 899.003 548.435 899.739 548.577L903.262 549.36C904.922 549.74 906.215 550.333 907.141 551.139C908.089 551.922 908.564 553.061 908.564 554.555C908.564 556.501 907.793 557.96 906.251 558.932C904.733 559.881 902.799 560.356 900.451 560.356ZM919.065 556.584V560.142C918.448 560.214 917.558 560.249 916.396 560.249C914.593 560.249 913.181 559.81 912.161 558.932C911.165 558.055 910.667 556.679 910.667 554.805V545.019H907.571V541.496H910.667V536.763H915.222V541.496H918.851V545.019H915.222V554.093C915.222 554.923 915.4 555.552 915.755 555.979C916.111 556.382 916.704 556.584 917.535 556.584H919.065ZM946.882 541.14C948.756 541.14 950.262 541.745 951.401 542.955C952.54 544.165 953.109 545.968 953.109 548.364V560H948.554V549.431C948.554 547.937 948.258 546.81 947.665 546.051C947.072 545.291 946.218 544.912 945.103 544.912C943.964 544.912 943.051 545.303 942.363 546.086C941.675 546.845 941.331 547.96 941.331 549.431V560H936.776V549.431C936.776 547.937 936.479 546.81 935.886 546.051C935.317 545.291 934.475 544.912 933.36 544.912C932.221 544.912 931.307 545.303 930.619 546.086C929.932 546.845 929.588 547.96 929.588 549.431V560H925.033V541.496H929.588V545.303H929.73C929.825 544.71 930.109 544.093 930.584 543.453C931.058 542.812 931.687 542.267 932.47 541.816C933.277 541.365 934.214 541.14 935.281 541.14C936.633 541.14 937.808 541.496 938.804 542.207C939.824 542.919 940.536 543.987 940.939 545.41C941.082 544.793 941.39 544.165 941.864 543.524C942.363 542.86 943.039 542.302 943.893 541.852C944.747 541.377 945.743 541.14 946.882 541.14ZM962.521 541.14C965.202 541.14 967.147 541.638 968.357 542.634C969.567 543.607 970.172 545.137 970.172 547.225V560H965.83V556.726H965.652C965.558 557.153 965.273 557.651 964.798 558.221C964.324 558.79 963.636 559.288 962.734 559.715C961.833 560.142 960.754 560.356 959.496 560.356C957.812 560.356 956.4 559.941 955.262 559.11C954.123 558.256 953.554 556.975 953.554 555.267C953.554 553.559 954.123 552.325 955.262 551.566C956.4 550.807 957.942 550.297 959.888 550.036L963.517 549.538C964.348 549.443 964.905 549.277 965.19 549.04C965.475 548.779 965.617 548.376 965.617 547.83V547.438C965.617 546.347 965.332 545.588 964.763 545.161C964.217 544.734 963.411 544.52 962.343 544.52C960.066 544.52 958.927 545.398 958.927 547.154V547.367L954.621 547.438V546.727C954.621 543.002 957.254 541.14 962.521 541.14ZM965.617 551.317C965.522 551.507 965.32 551.649 965.012 551.744C964.727 551.839 964.265 551.934 963.624 552.029L960.991 552.385C959.994 552.551 959.247 552.812 958.749 553.168C958.274 553.524 958.037 554.034 958.037 554.698C958.037 555.386 958.286 555.943 958.785 556.37C959.283 556.797 960.054 557.011 961.098 557.011C962.07 557.011 962.889 556.833 963.553 556.477C964.241 556.097 964.751 555.647 965.083 555.125C965.439 554.603 965.617 554.105 965.617 553.63V551.317ZM981.975 541.14C983.375 541.14 984.691 541.484 985.925 542.172C987.182 542.86 988.19 543.927 988.95 545.375C989.732 546.822 990.124 548.613 990.124 550.748C990.124 552.883 989.732 554.674 988.95 556.121C988.19 557.568 987.182 558.636 985.925 559.324C984.691 560.012 983.375 560.356 981.975 560.356C980.646 560.356 979.472 560.083 978.452 559.537C977.432 558.968 976.696 558.233 976.246 557.331V566.761H971.691V541.496H976.246V544.165C976.696 543.263 977.432 542.54 978.452 541.994C979.472 541.425 980.646 541.14 981.975 541.14ZM980.907 556.548C982.283 556.548 983.446 556.05 984.395 555.054C985.367 554.057 985.854 552.622 985.854 550.748C985.854 548.874 985.367 547.438 984.395 546.442C983.446 545.446 982.283 544.947 980.907 544.947C979.555 544.947 978.405 545.446 977.456 546.442C976.507 547.438 976.032 548.874 976.032 550.748C976.032 552.622 976.507 554.057 977.456 555.054C978.405 556.05 979.555 556.548 980.907 556.548ZM997.369 560.356C994.925 560.356 993.003 559.834 991.604 558.79C990.228 557.746 989.528 556.204 989.504 554.164H993.561C993.798 556.014 995.091 556.94 997.44 556.94C998.46 556.94 999.266 556.75 999.859 556.37C1000.48 555.991 1000.78 555.421 1000.78 554.662C1000.78 554.117 1000.61 553.701 1000.25 553.417C999.919 553.108 999.373 552.859 998.614 552.669L995.198 551.922C991.758 551.139 990.038 549.372 990.038 546.62C990.038 544.888 990.702 543.548 992.031 542.599C993.359 541.626 995.15 541.14 997.404 541.14C999.753 541.14 1001.56 541.674 1002.81 542.741C1004.07 543.809 1004.72 545.327 1004.77 547.296H1001C1000.78 545.469 999.634 544.556 997.546 544.556C996.574 544.556 995.803 544.734 995.233 545.09C994.664 545.446 994.379 545.932 994.379 546.549C994.379 547.071 994.569 547.51 994.949 547.865C995.352 548.198 995.921 548.435 996.657 548.577L1000.18 549.36C1001.84 549.74 1003.13 550.333 1004.06 551.139C1005.01 551.922 1005.48 553.061 1005.48 554.555C1005.48 556.501 1004.71 557.96 1003.17 558.932C1001.65 559.881 999.717 560.356 997.369 560.356Z" fill="white"/>
</g>
</g>
</g>
<g id="about">
<rect width="444.814" height="47" transform="translate(618 722)" fill="white" fill-opacity="0.01"/>
<g id="Group 106_2">
<g id="pacific northwest maps_3">
<path id="about_2" d="M807.623 740.14C810.304 740.14 812.249 740.638 813.459 741.634C814.669 742.607 815.274 744.137 815.274 746.225V759H810.932V755.726H810.754C810.659 756.153 810.375 756.651 809.9 757.221C809.426 757.79 808.738 758.288 807.836 758.715C806.935 759.142 805.855 759.356 804.598 759.356C802.914 759.356 801.502 758.941 800.364 758.11C799.225 757.256 798.655 755.975 798.655 754.267C798.655 752.559 799.225 751.325 800.364 750.566C801.502 749.807 803.044 749.297 804.99 749.036L808.619 748.538C809.45 748.443 810.007 748.277 810.292 748.04C810.576 747.779 810.719 747.376 810.719 746.83V746.438C810.719 745.347 810.434 744.588 809.865 744.161C809.319 743.734 808.513 743.52 807.445 743.52C805.168 743.52 804.029 744.398 804.029 746.154V746.367L799.723 746.438V745.727C799.723 742.002 802.356 740.14 807.623 740.14ZM810.719 750.317C810.624 750.507 810.422 750.649 810.114 750.744C809.829 750.839 809.367 750.934 808.726 751.029L806.093 751.385C805.096 751.551 804.349 751.812 803.851 752.168C803.376 752.524 803.139 753.034 803.139 753.698C803.139 754.386 803.388 754.943 803.886 755.37C804.385 755.797 805.156 756.011 806.199 756.011C807.172 756.011 807.991 755.833 808.655 755.477C809.343 755.097 809.853 754.647 810.185 754.125C810.541 753.603 810.719 753.105 810.719 752.63V750.317ZM826.903 740.14C828.303 740.14 829.619 740.484 830.853 741.172C832.11 741.86 833.119 742.927 833.878 744.375C834.661 745.822 835.052 747.613 835.052 749.748C835.052 751.883 834.661 753.674 833.878 755.121C833.119 756.568 832.11 757.636 830.853 758.324C829.619 759.012 828.303 759.356 826.903 759.356C825.575 759.356 824.4 759.083 823.38 758.537C822.36 757.968 821.625 757.233 821.174 756.331V759H816.619V734.09H821.174V743.165C821.625 742.263 822.36 741.54 823.38 740.994C824.4 740.425 825.575 740.14 826.903 740.14ZM825.836 755.548C827.211 755.548 828.374 755.05 829.323 754.054C830.296 753.057 830.782 751.622 830.782 749.748C830.782 747.874 830.296 746.438 829.323 745.442C828.374 744.446 827.211 743.947 825.836 743.947C824.483 743.947 823.333 744.446 822.384 745.442C821.435 746.438 820.96 747.874 820.96 749.748C820.96 751.622 821.435 753.057 822.384 754.054C823.333 755.05 824.483 755.548 825.836 755.548ZM843.965 759.356C842.328 759.356 840.81 759.012 839.41 758.324C838.034 757.612 836.919 756.545 836.065 755.121C835.211 753.674 834.784 751.883 834.784 749.748C834.784 747.613 835.211 745.834 836.065 744.41C836.919 742.963 838.034 741.895 839.41 741.207C840.81 740.496 842.328 740.14 843.965 740.14C845.578 740.14 847.085 740.496 848.484 741.207C849.884 741.895 851.011 742.963 851.865 744.41C852.719 745.834 853.146 747.613 853.146 749.748C853.146 751.883 852.719 753.674 851.865 755.121C851.011 756.545 849.884 757.612 848.484 758.324C847.085 759.012 845.578 759.356 843.965 759.356ZM843.965 755.548C845.388 755.548 846.551 755.062 847.452 754.089C848.378 753.117 848.84 751.669 848.84 749.748C848.84 747.826 848.378 746.379 847.452 745.406C846.551 744.434 845.388 743.947 843.965 743.947C842.518 743.947 841.332 744.434 840.407 745.406C839.505 746.379 839.054 747.826 839.054 749.748C839.054 751.669 839.505 753.117 840.407 754.089C841.332 755.062 842.518 755.548 843.965 755.548ZM870.805 740.496V759H866.25V755.192H866.072C865.93 755.809 865.621 756.438 865.147 757.078C864.672 757.719 863.996 758.265 863.118 758.715C862.264 759.142 861.232 759.356 860.023 759.356C858.125 759.356 856.571 758.751 855.361 757.541C854.175 756.331 853.582 754.528 853.582 752.132V740.496H858.136V751.065C858.136 754.077 859.406 755.584 861.944 755.584C863.225 755.584 864.257 755.204 865.04 754.445C865.847 753.662 866.25 752.535 866.25 751.065V740.496H870.805ZM882.364 755.584V759.142C881.747 759.214 880.857 759.249 879.695 759.249C877.892 759.249 876.48 758.81 875.46 757.932C874.464 757.055 873.965 755.679 873.965 753.805V744.019H870.87V740.496H873.965V735.763H878.52V740.496H882.15V744.019H878.52V753.093C878.52 753.923 878.698 754.552 879.054 754.979C879.41 755.382 880.003 755.584 880.833 755.584H882.364Z" fill="white"/>
</g>
</g>
</g>
</g>
<defs>
<filter id="filter0_n_201_8" x="0" y="0" width="1680" height="1200" filterUnits="userSpaceOnUse" color-interpolation-filters="sRGB">
<feFlood flood-opacity="0" result="BackgroundImageFix"/>
<feBlend mode="normal" in="SourceGraphic" in2="BackgroundImageFix" result="shape"/>
<feTurbulence type="fractalNoise" baseFrequency="2 2" stitchTiles="stitch" numOctaves="3" result="noise" seed="8529" />
<feColorMatrix in="noise" type="luminanceToAlpha" result="alphaNoise" />
<feComponentTransfer in="alphaNoise" result="coloredNoise1">
<feFuncA type="discrete" tableValues="1 1 1 1 1 1 1 1 1 1 1 1 1 1 1 1 1 1 1 1 1 1 1 1 1 1 1 1 1 1 1 1 1 1 1 1 1 1 1 1 1 1 1 1 1 1 1 1 1 1 1 0 0 0 0 0 0 0 0 0 0 0 0 0 0 0 0 0 0 0 0 0 0 0 0 0 0 0 0 0 0 0 0 0 0 0 0 0 0 0 0 0 0 0 0 0 0 0 0 0 "/>
</feComponentTransfer>
<feComposite operator="in" in2="shape" in="coloredNoise1" result="noise1Clipped" />
<feComponentTransfer in="alphaNoise" result="coloredNoise2">
<feFuncA type="discrete" tableValues="0 0 0 0 0 0 0 0 0 0 0 0 0 0 0 0 0 0 0 0 0 0 0 0 0 0 0 0 0 0 0 0 0 0 0 0 0 0 0 0 0 0 0 0 0 0 0 0 0 1 1 1 1 1 1 1 1 1 1 1 1 1 1 1 1 1 1 1 1 1 1 1 1 1 1 1 1 1 1 1 1 1 1 1 1 1 1 1 1 1 1 1 1 1 1 1 1 1 1 1 "/>
</feComponentTransfer>
<feComposite operator="in" in2="shape" in="coloredNoise2" result="noise2Clipped" />
<feFlood flood-color="rgba(25, 33, 46, 0.25)" result="color1Flood" />
<feComposite operator="in" in2="noise1Clipped" in="color1Flood" result="color1" />
<feFlood flood-color="rgba(255, 255, 255, 0.25)" result="color2Flood" />
<feComposite operator="in" in2="noise2Clipped" in="color2Flood" result="color2" />
<feMerge result="effect1_noise_201_8">
<feMergeNode in="shape" />
<feMergeNode in="color1" />
<feMergeNode in="color2" />
</feMerge>
</filter>
<filter id="filter1_f_201_8" x="535.309" y="295.309" width="609.382" height="609.382" filterUnits="userSpaceOnUse" color-interpolation-filters="sRGB">
<feFlood flood-opacity="0" result="BackgroundImageFix"/>
<feBlend mode="normal" in="SourceGraphic" in2="BackgroundImageFix" result="shape"/>
<feGaussianBlur stdDeviation="19.3455" result="effect1_foregroundBlur_201_8"/>
</filter>
<clipPath id="clip0_201_8">
<rect width="1680" height="1200" fill="white"/>
</clipPath>
</defs>
</svg>
